Coordinates
version=1
nRows=17
nColumns=33
inDegrees=yes

Units are S.I. units (second, meters, Newtons, ...)
Angles are in degrees.

endheader
time	ground_thorax_rot_x	ground_thorax_rot_y	ground_thorax_rot_z	ground_thorax_tx	ground_thorax_ty	ground_thorax_tz	clav_prot_r	clav_elev_r	scapula_abduction_r	scapula_elevation_r	scapula_upward_rot_r	scapula_winging_r	shoulder_elv_r	plane_of_elev_r	axial_rot_r	elbow_flexion_r	pro_sup_r	wrist_flex_r	wrist_dev_r	clav_prot_l	clav_elev_l	scapula_abduction_l	scapula_elevation_l	scapula_upward_rot_l	scapula_winging_l	shoulder_elv_l	plane_of_elev_l	axial_rot_l	elbow_flexion_l	pro_sup_l	wrist_flex_l	wrist_dev_l
      5.41000000	     -0.82713180	      2.14145873	     13.24578561	     -0.11914079	      1.02749978	      0.01191422	      7.12784164	    -11.47399732	     11.12196809	     -2.84067838	     -3.37275568	     -0.56188331	    -52.54678119	    -74.78188823	     87.06230971	    -64.42641069	   -140.77487146	     53.03865969	    -24.99999983	     10.04528799	     -1.05882115	    -12.97371383	    -22.07836458	    -37.84862113	     -1.56095206	     57.33009227	    -36.46266134	     -3.38267545	     59.57758313	     26.41260287	     -8.03069765	    -24.99999983
      5.42000000	     -0.90293279	      2.10658727	     13.17412673	     -0.11891179	      1.02728788	      0.01199764	      7.07418738	    -11.43828196	     11.08982587	     -2.87192126	     -3.22663274	     -0.57159682	    -52.47268108	    -74.73575385	     87.14059949	    -64.87502513	   -140.82344111	     53.12862602	    -24.99999983	     10.06522804	     -0.93707698	    -12.98271395	    -22.16503830	    -37.77938481	     -1.56214082	     57.39136194	    -36.38414613	     -3.26312957	     60.00399903	     26.32656045	     -8.12253219	    -24.99999983
      5.43000000	     -0.92026298	      2.09144606	     13.10957679	     -0.11865613	      1.02715246	      0.01206965	      7.01729673	    -11.38818307	     11.05012540	     -2.88519141	     -3.09025294	     -0.58517705	    -52.37808777	    -74.72027403	     87.19739030	    -65.35576220	   -140.91195880	     53.20633316	    -24.99999983	     10.07015542	     -0.86814296	    -12.97266108	    -22.20448423	    -37.71985870	     -1.56316051	     57.41795226	    -36.26243880	     -3.10716546	     60.48140846	     26.20796231	     -8.23511382	    -24.99999983
      5.44000000	     -0.92559828	      2.07166270	     13.05219685	     -0.11847222	      1.02714554	      0.01219272	      6.95914734	    -11.32778866	     11.01229716	     -2.89468551	     -2.94066200	     -0.60161938	    -52.27584031	    -74.72582107	     87.25784682	    -65.91219238	   -141.03385557	     53.27900158	    -24.99999983	     10.07262742	     -0.82972294	    -12.95861548	    -22.21159711	    -37.65530908	     -1.56260812	     57.44991999	    -36.13406930	     -2.88747831	     60.99809035	     26.05468994	     -8.37089659	    -24.99999983
      5.45000000	     -0.91030857	      2.05813600	     12.99833015	     -0.11827717	      1.02717619	      0.01234168	      6.90103859	    -11.26091348	     10.97768345	     -2.90152844	     -2.78230789	     -0.62273185	    -52.15693266	    -74.76268184	     87.31405975	    -66.50254705	   -141.18617681	     53.33602778	    -24.99999983	     10.06867811	     -0.81371674	    -12.93513424	    -22.19328448	    -37.58637773	     -1.55901984	     57.47979979	    -35.99084256	     -2.60903924	     61.56997981	     25.86496534	     -8.52873903	    -24.99999983
      5.46000000	     -0.88243345	      2.04488334	     12.94801462	     -0.11805808	      1.02711192	      0.01243385	      6.84188261	    -11.19435621	     10.94944007	     -2.91568788	     -2.60826654	     -0.64897811	    -52.02764692	    -74.82196557	     87.39032839	    -67.15858221	   -141.37524970	     53.37395144	    -24.99999983	     10.06519682	     -0.81928134	    -12.91184478	    -22.15510034	    -37.51413089	     -1.56130816	     57.51492937	    -35.84679245	     -2.26330182	     62.17855921	     25.62907873	     -8.70996402	    -24.99999983
      5.47000000	     -0.85941505	      2.03785151	     12.90879224	     -0.11785124	      1.02717455	      0.01251973	      6.78628993	    -11.12819227	     10.93202840	     -2.93459925	     -2.42445110	     -0.67847135	    -51.88941092	    -74.87490221	     87.45876048	    -67.82835270	   -141.57416906	     53.38986010	    -24.99999983	     10.05466094	     -0.84406869	    -12.87618823	    -22.08899813	    -37.42386098	     -1.55406288	     57.55420049	    -35.66803539	     -1.90018759	     62.80668222	     25.37864757	     -8.88682279	    -24.99999983
      5.48000000	     -0.50905292	      1.91736829	     13.00412935	     -0.11826784	      1.02760834	      0.01261095	      6.83237378	    -11.06990011	     10.84114205	     -2.71455571	     -2.80738623	     -0.64851246	    -50.59566020	    -75.49985876	     88.85088237	    -69.01466830	   -143.99099761	     51.90375887	    -24.99999983	     10.28885653	     -1.53586190	    -13.51505631	    -21.72018323	    -38.11476036	     -1.31430789	     57.31007765	    -35.39523959	     -1.01805807	     63.14545789	     22.87112378	     -9.99549275	    -24.99999983
      5.49000000	     -0.55577357	      2.02109895	     13.01384184	     -0.11801280	      1.02762471	      0.01272109	      6.77338466	    -11.00092348	     10.82345883	     -2.73843138	     -2.60625007	     -0.67862247	    -50.46072153	    -75.39092865	     88.86480308	    -69.57838187	   -144.02631216	     51.97923319	    -24.99999983	     10.27601967	     -1.43169209	    -13.43563184	    -21.72137344	    -37.89968692	     -1.31963013	     57.45393538	    -35.13503135	     -0.77373215	     63.88798418	     22.74885545	    -10.09341667	    -24.99999983
      5.50000000	     -0.63620927	      2.02841157	     12.97526945	     -0.11777956	      1.02757334	      0.01292759	      6.71492233	    -10.95500161	     10.85138590	     -2.82462540	     -2.30867725	     -0.72232519	    -50.32733744	    -75.32802589	     88.93454077	    -70.34662293	   -144.08723591	     52.04377115	    -24.99999983	     10.28925947	     -1.33663321	    -13.40372742	    -21.71446079	    -37.68822947	     -1.31004212	     57.62874844	    -34.91390059	     -0.48020908	     64.55602237	     22.59377318	    -10.17338011	    -24.99999983
      5.51000000	     -0.66579684	      2.07540385	     12.92766418	     -0.11750744	      1.02752852	      0.01304483	      6.66619706	    -10.91558813	     10.89966345	     -2.91688403	     -2.00994868	     -0.77242441	    -50.16113714	    -75.33405078	     89.01345800	    -71.05926947	   -144.18835785	     52.02374627	    -24.99999983	     10.28874439	     -1.27665717	    -13.34718265	    -21.66816224	    -37.46511994	     -1.30445474	     57.78512447	    -34.61447960	     -0.12554363	     65.27424980	     22.38062385	    -10.22545016	    -24.99999983
      5.52000000	     -0.43201225	      1.95786402	     12.91219615	     -0.11754735	      1.02753567	      0.01306954	      6.73112843	    -10.66710188	     11.03838221	     -2.72352413	     -1.92026564	     -0.92418127	    -48.69365443	    -75.72092480	     90.77889740	    -72.27161270	   -145.62138945	     49.43786349	    -24.99999983	     10.26906261	     -1.49612374	    -13.40588714	    -21.61530229	    -37.80685998	     -1.31241656	     57.90702791	    -33.94226627	      0.60000536	     65.75236173	     20.00157120	     -8.94863668	    -24.99999983
      5.53000000	     -0.54355140	      2.01705681	     12.94253822	     -0.11728593	      1.02751650	      0.01326169	      6.71393625	    -10.67461168	     11.12574014	     -2.84240297	     -1.65967142	     -0.96834965	    -48.52418128	    -75.61114513	     90.84230945	    -72.97058852	   -145.63642511	     49.50496294	    -24.99999983	     10.29759947	     -1.42710514	    -13.39275965	    -21.55495516	    -37.53932860	     -1.27913150	     58.17704739	    -33.69995059	      0.85078981	     66.44001743	     19.88359417	     -8.95189162	    -24.99999983
      5.54000000	     -0.60567394	      2.08041381	     12.93036984	     -0.11706146	      1.02756103	      0.01339579	      6.71632165	    -10.72087493	     11.27330848	     -3.01781852	     -1.34849555	     -1.02077977	    -48.33113252	    -75.56899585	     90.92177624	    -73.63907400	   -145.69277049	     49.47849079	    -24.99999983	     10.33398826	     -1.40153007	    -13.39653560	    -21.44545099	    -37.25968521	     -1.22793609	     58.43051853	    -33.36357609	      1.09244579	     67.08155459	     19.73116204	     -8.87973571	    -24.99999983
      5.55000000	     -0.40176831	      1.90148087	     12.94574099	     -0.11699635	      1.02752132	      0.01347933	      6.91714892	    -10.41709986	     11.67740757	     -2.80247179	     -1.18526673	     -1.29665157	    -46.45404164	    -75.74115420	     93.01615106	    -74.82280408	   -146.72501212	     46.21511464	    -24.73783259	     10.18020716	     -1.72068618	    -13.21041673	    -21.28352759	    -37.56010537	     -1.32712045	     58.96838228	    -32.87769595	      1.85852659	     67.77959137	     17.56941826	     -4.92196672	    -24.99999983
      5.56000000	     -0.48187486	      1.97727288	     12.95711041	     -0.11684505	      1.02754548	      0.01362966	      6.95549603	    -10.51750206	     11.89140206	     -3.02725877	     -0.87306126	     -1.35215771	    -46.24540732	    -75.69862745	     93.07278951	    -75.44303353	   -146.73972180	     46.27167929	    -24.72615804	     10.25603852	     -1.69970699	    -13.27340683	    -21.14052216	    -37.22348958	     -1.24226098	     59.26916553	    -32.48777653	      1.97734426	     68.28225739	     17.50351490	     -4.86391471	    -24.99999983
      5.57000000	     -0.57622277	      2.05303127	     12.70238722	     -0.11648683	      1.02805404	      0.01368975	      6.98636761	    -10.69690972	     12.19224845	     -3.40697206	     -0.36165683	     -1.41276114	    -45.61412826	    -75.35644779	     93.34977905	    -75.86447502	   -146.95022756	     45.73378490	    -24.43282693	     10.25685253	     -1.80324071	    -13.20663086	    -20.86838091	    -36.86241539	     -1.19681526	     59.62013093	    -31.88673385	      2.45576757	     68.70788863	     17.21081986	     -4.12787136	    -24.99999983
